<svg width="26" height="23" viewBox="0 0 26 23" fill="none" xmlns="http://www.w3.org/2000/svg">
<path d="M10.2007 13.9585C9.48193 13.241 9.04443 12.266 9.04443 11.1722C9.04443 8.98099 10.8094 7.21474 12.9994 7.21474C14.0832 7.21474 15.0807 7.65349 15.7869 8.37099" stroke="#9087AA" stroke-width="2" stroke-linecap="round" stroke-linejoin="round"/>
<path d="M16.881 11.8736C16.591 13.4861 15.321 14.7586 13.7097 15.0511" stroke="#9087AA" stroke-width="2" stroke-linecap="round" stroke-linejoin="round"/>
<path d="M6.31826 17.8404C4.33451 16.2829 2.65451 14.0079 1.43701 11.1716C2.66701 8.32287 4.35826 6.03537 6.35451 4.46537C8.33826 2.89537 10.627 2.04287 12.9995 2.04287C15.3858 2.04287 17.6733 2.90787 19.6695 4.48912" stroke="#9087AA" stroke-width="2" stroke-linecap="round" stroke-linejoin="round"/>
<path d="M22.3095 7.23849C23.1695 8.38099 23.9257 9.69974 24.562 11.171C22.1032 16.8672 17.7582 20.2985 12.9995 20.2985C11.9207 20.2985 10.857 20.1235 9.83447 19.7822" stroke="#9087AA" stroke-width="2" stroke-linecap="round" stroke-linejoin="round"/>
<path d="M22.8589 1.312L3.14136 21.0295" stroke="#9087AA" stroke-width="2" stroke-linecap="round" stroke-linejoin="round"/>
</svg>
