<svg width="250" height="250" viewBox="0 0 314 329" fill="none" xmlns="http://www.w3.org/2000/svg">
<path d="M68.923 312.241C69.7106 312.241 70.4496 312.371 71.1374 312.627C71.8252 312.884 72.4212 313.276 72.9202 313.797C73.4192 314.318 73.813 314.968 74.1016 315.746C74.3902 316.526 74.5358 317.436 74.5358 318.478C74.5358 319.497 74.3875 320.393 74.0935 321.171C73.7968 321.951 73.3949 322.604 72.8824 323.131C72.37 323.66 71.7658 324.056 71.0699 324.329C70.3741 324.599 69.6323 324.734 68.8448 324.734C68.0572 324.734 67.3182 324.601 66.6304 324.337C65.9399 324.072 65.3465 323.681 64.8475 323.16C64.3486 322.639 63.9548 321.988 63.6662 321.21C63.3776 320.433 63.2319 319.52 63.2319 318.478C63.2319 317.463 63.3803 316.566 63.6743 315.794C63.9683 315.021 64.3728 314.371 64.8853 313.844C65.3978 313.318 65.9965 312.918 66.687 312.646C67.3775 312.376 68.1219 312.241 68.923 312.241ZM64.7478 318.478C64.7478 319.354 64.8583 320.113 65.0822 320.758C65.3061 321.401 65.6081 321.935 65.9885 322.361C66.3688 322.787 66.8111 323.102 67.3181 323.308C67.8225 323.514 68.3593 323.617 68.923 323.617C69.4867 323.617 70.0154 323.514 70.5089 323.308C71.0025 323.102 71.4341 322.787 71.809 322.361C72.1839 321.935 72.4779 321.404 72.6964 320.758C72.9121 320.115 73.02 319.356 73.02 318.478C73.02 317.589 72.9094 316.822 72.6856 316.172C72.4617 315.521 72.1596 314.992 71.7793 314.579C71.399 314.167 70.9567 313.863 70.4496 313.662C69.9452 313.463 69.4085 313.363 68.8448 313.363C68.2811 313.363 67.7524 313.466 67.2588 313.672C66.7652 313.879 66.3337 314.193 65.9588 314.619C65.5839 315.045 65.2899 315.579 65.0741 316.222C64.8556 316.862 64.7478 317.616 64.7478 318.478Z" fill="black"/>
<path d="M80.4211 324.734C80.0004 324.734 79.5985 324.675 79.2101 324.559C78.8217 324.443 78.4926 324.289 78.2148 324.096V329H76.8555V315.368H77.9964L78.1933 316.526C78.5223 316.217 78.9107 315.947 79.3638 315.714C79.817 315.481 80.3591 315.368 80.9875 315.368C81.5782 315.368 82.1177 315.466 82.6032 315.656C83.0887 315.849 83.5067 316.135 83.8547 316.516C84.2026 316.897 84.4723 317.362 84.6611 317.915C84.8499 318.468 84.947 319.1 84.947 319.806C84.947 320.655 84.8203 321.39 84.564 322.007C84.3078 322.626 83.9679 323.136 83.5391 323.541C83.1129 323.945 82.6275 324.247 82.0826 324.437C81.5405 324.638 80.9849 324.734 80.4211 324.734ZM80.6963 316.471C80.4077 316.471 80.1352 316.51 79.879 316.587C79.6228 316.664 79.3908 316.764 79.1804 316.886C78.9701 317.008 78.7839 317.142 78.6194 317.291C78.4549 317.439 78.32 317.584 78.2148 317.724V323.033C78.5169 323.252 78.8406 323.414 79.1885 323.517C79.5364 323.62 79.8871 323.67 80.2431 323.67C80.6504 323.67 81.0496 323.604 81.4434 323.467C81.8372 323.329 82.1851 323.112 82.4872 322.811C82.7893 322.509 83.0347 322.112 83.2262 321.623C83.415 321.134 83.5121 320.536 83.5121 319.827C83.5121 318.772 83.2829 317.947 82.8216 317.357C82.3631 316.767 81.6538 316.471 80.6963 316.471Z" fill="black"/>
<path d="M90.719 324.734C90.2982 324.734 89.8964 324.675 89.508 324.559C89.1196 324.443 88.7905 324.289 88.5127 324.096V329H87.1533V315.368H88.2942L88.4911 316.526C88.8202 316.217 89.2086 315.947 89.6617 315.714C90.1148 315.481 90.657 315.368 91.2854 315.368C91.8761 315.368 92.4156 315.466 92.901 315.656C93.3865 315.849 93.8046 316.135 94.1525 316.516C94.5005 316.897 94.7702 317.362 94.959 317.915C95.1478 318.468 95.2449 319.1 95.2449 319.806C95.2449 320.655 95.1181 321.39 94.8619 322.007C94.6057 322.626 94.2658 323.136 93.837 323.541C93.4108 323.945 92.9253 324.247 92.3805 324.437C91.8383 324.638 91.2827 324.734 90.719 324.734ZM90.9941 316.471C90.7055 316.471 90.4331 316.51 90.1769 316.587C89.9206 316.664 89.6887 316.764 89.4783 316.886C89.2679 317.008 89.0818 317.142 88.9173 317.291C88.7528 317.439 88.6179 317.584 88.5127 317.724V323.033C88.8148 323.252 89.1385 323.414 89.4864 323.517C89.8343 323.62 90.185 323.67 90.541 323.67C90.9483 323.67 91.3475 323.604 91.7412 323.467C92.135 323.329 92.483 323.112 92.7851 322.811C93.0871 322.509 93.3326 322.112 93.5241 321.623C93.7129 321.134 93.81 320.536 93.81 319.827C93.81 318.772 93.5807 317.947 93.1195 317.357C92.661 316.767 91.9516 316.471 90.9941 316.471Z" fill="black"/>
<path d="M102.414 316.915C102.034 316.735 101.67 316.606 101.322 316.529C100.974 316.452 100.61 316.412 100.229 316.412C99.5605 316.412 99.0615 316.542 98.7325 316.799C98.4034 317.055 98.2389 317.391 98.2389 317.804C98.2389 318.177 98.3656 318.47 98.6219 318.682C98.8781 318.893 99.3609 319.102 100.07 319.309L100.661 319.483C101.476 319.727 102.096 320.057 102.522 320.467C102.948 320.88 103.161 321.414 103.161 322.07C103.161 322.842 102.867 323.48 102.277 323.982C101.686 324.485 100.839 324.736 99.7358 324.736C99.1451 324.736 98.6003 324.689 98.1013 324.591C97.6023 324.493 97.1681 324.355 96.8013 324.176L97.1546 323.115C97.5079 323.295 97.8882 323.432 98.2955 323.53C98.7028 323.628 99.1478 323.676 99.6333 323.676C100.302 323.676 100.825 323.551 101.198 323.3C101.573 323.049 101.759 322.678 101.759 322.189C101.759 321.777 101.61 321.451 101.316 321.213C101.02 320.975 100.545 320.753 99.8895 320.547L99.2584 320.353C98.4439 320.097 97.8397 319.772 97.4459 319.378C97.0521 318.986 96.8552 318.486 96.8552 317.88C96.8552 317.507 96.9334 317.166 97.0926 316.857C97.2517 316.547 97.4729 316.283 97.7615 316.066C98.0501 315.846 98.3872 315.677 98.7756 315.555C99.1613 315.434 99.5929 315.373 100.065 315.373C100.499 315.373 100.952 315.413 101.424 315.489C101.896 315.566 102.336 315.696 102.743 315.876L102.414 316.915Z" fill="black"/>
<path d="M104.855 323.691C104.855 323.395 104.949 323.152 105.141 322.959C105.332 322.766 105.564 322.671 105.839 322.671C106.115 322.671 106.349 322.768 106.538 322.959C106.73 323.152 106.824 323.398 106.824 323.691C106.824 324.014 106.73 324.268 106.538 324.453C106.347 324.641 106.115 324.734 105.839 324.734C105.564 324.734 105.33 324.641 105.141 324.453C104.949 324.268 104.855 324.014 104.855 323.691Z" fill="black"/>
<path d="M113.281 312.397H116.925C117.529 312.397 118.087 312.474 118.597 312.63C119.109 312.784 119.552 313.014 119.927 313.315C120.302 313.617 120.59 313.992 120.792 314.434C120.995 314.878 121.097 315.397 121.097 315.989C121.097 316.595 120.987 317.124 120.763 317.582C120.539 318.039 120.234 318.417 119.848 318.722C119.46 319.023 119.001 319.253 118.47 319.407C117.939 319.56 117.359 319.639 116.728 319.639H114.699V324.564H113.281V312.397V312.397ZM114.699 318.497H116.118C116.631 318.497 117.103 318.457 117.537 318.38C117.971 318.304 118.338 318.171 118.64 317.984C118.942 317.796 119.18 317.542 119.349 317.222C119.519 316.899 119.606 316.494 119.606 316.005C119.606 315.529 119.517 315.13 119.339 314.807C119.161 314.484 118.931 314.228 118.648 314.035C118.365 313.842 118.041 313.707 117.674 313.63C117.308 313.553 116.933 313.514 116.552 313.514H114.702V318.497H114.699Z" fill="black"/>
<path d="M123.147 316.296C123.765 315.973 124.331 315.738 124.849 315.59C125.367 315.442 125.941 315.368 126.573 315.368C127.045 315.368 127.481 315.423 127.881 315.532C128.28 315.64 128.628 315.825 128.924 316.082C129.221 316.338 129.45 316.677 129.612 317.095C129.777 317.513 129.858 318.031 129.858 318.65V324.559H128.795L128.579 323.459H128.539C128.145 323.911 127.695 324.234 127.19 324.435C126.683 324.633 126.13 324.734 125.526 324.734C125.092 324.734 124.69 324.673 124.315 324.551C123.94 324.429 123.619 324.252 123.349 324.019C123.08 323.787 122.869 323.512 122.718 323.189C122.567 322.866 122.492 322.507 122.492 322.107C122.492 321.631 122.591 321.213 122.788 320.851C122.985 320.491 123.263 320.187 123.625 319.944C123.986 319.7 124.417 319.515 124.925 319.393C125.432 319.272 125.99 319.211 126.608 319.211H128.479V318.536C128.479 317.764 128.296 317.227 127.929 316.923C127.562 316.621 127.077 316.468 126.473 316.468C126.106 316.468 125.688 316.524 125.221 316.632C124.755 316.74 124.239 316.949 123.676 317.259L123.147 316.296ZM128.482 320.197L126.947 320.216C125.858 320.242 125.084 320.428 124.625 320.777C124.167 321.123 123.935 321.549 123.935 322.052C123.935 322.657 124.126 323.08 124.506 323.326C124.887 323.57 125.34 323.694 125.866 323.694C126.324 323.694 126.791 323.588 127.263 323.374C127.735 323.16 128.142 322.811 128.485 322.321V320.197H128.482Z" fill="black"/>
<path d="M132.223 318.497C132.223 317.994 132.315 317.547 132.498 317.156C132.682 316.764 132.938 316.436 133.267 316.172C133.596 315.907 133.99 315.709 134.448 315.574C134.907 315.439 135.406 315.37 135.945 315.37C136.169 315.37 136.369 315.384 136.547 315.41C136.725 315.436 136.897 315.463 137.067 315.487H140.986V316.51H140.121L138.467 316.336C138.796 316.579 139.058 316.894 139.255 317.272C139.452 317.653 139.549 318.055 139.549 318.478C139.549 318.981 139.457 319.428 139.274 319.819C139.09 320.211 138.837 320.544 138.516 320.814C138.195 321.083 137.809 321.287 137.364 321.422C136.919 321.557 136.431 321.626 135.908 321.626C135.724 321.626 135.543 321.62 135.365 321.607C135.187 321.594 135.007 321.575 134.823 321.549C134.521 321.652 134.289 321.803 134.125 322.004C133.96 322.202 133.879 322.414 133.879 322.631C133.879 322.94 133.995 323.16 134.224 323.287C134.454 323.414 134.753 323.48 135.12 323.48H137.542C138.567 323.48 139.346 323.699 139.886 324.136C140.423 324.572 140.692 325.159 140.692 325.892C140.692 326.858 140.272 327.617 139.433 328.169C138.594 328.722 137.45 329 136.007 329C134.694 329 133.65 328.759 132.876 328.275C132.102 327.791 131.713 327.106 131.713 326.217C131.713 325.741 131.862 325.342 132.156 325.019C132.452 324.697 132.854 324.445 133.367 324.265C133.129 324.123 132.943 323.948 132.806 323.734C132.668 323.522 132.598 323.247 132.598 322.914C132.598 322.501 132.719 322.157 132.962 321.88C133.205 321.605 133.518 321.382 133.898 321.213C133.426 320.994 133.03 320.66 132.706 320.208C132.385 319.766 132.223 319.192 132.223 318.497ZM134.233 324.562C133.879 324.704 133.599 324.9 133.396 325.151C133.194 325.403 133.092 325.694 133.092 326.03C133.092 326.659 133.351 327.133 133.868 327.45C134.386 327.765 135.12 327.923 136.064 327.923C136.641 327.923 137.137 327.868 137.55 327.759C137.963 327.651 138.303 327.503 138.564 327.315C138.826 327.127 139.017 326.918 139.136 326.688C139.255 326.455 139.314 326.225 139.314 325.993C139.314 325.71 139.257 325.474 139.147 325.286C139.036 325.099 138.877 324.95 138.675 324.842C138.473 324.734 138.233 324.66 137.957 324.62C137.682 324.58 137.38 324.562 137.051 324.562H134.233V324.562ZM138.13 318.536C138.13 317.814 137.93 317.275 137.529 316.915C137.127 316.555 136.601 316.375 135.943 316.375C135.274 316.375 134.721 316.55 134.289 316.896C133.855 317.243 133.639 317.767 133.639 318.46C133.639 319.192 133.852 319.737 134.278 320.092C134.705 320.446 135.247 320.623 135.902 320.623C136.558 320.623 137.094 320.449 137.507 320.102C137.92 319.756 138.13 319.232 138.13 318.536Z" fill="black"/>
<path d="M150.16 320.121H143.543V320.295C143.543 321.364 143.837 322.194 144.431 322.787C145.021 323.379 145.828 323.676 146.853 323.676C147.311 323.676 147.74 323.641 148.134 323.57C148.528 323.498 148.935 323.379 149.356 323.213L149.65 324.218C149.283 324.371 148.851 324.498 148.36 324.593C147.87 324.689 147.346 324.739 146.796 324.739C146.154 324.739 145.55 324.649 144.984 324.469C144.42 324.289 143.924 324.009 143.497 323.628C143.071 323.247 142.731 322.763 142.483 322.171C142.235 321.578 142.108 320.872 142.108 320.047C142.108 319.338 142.214 318.695 142.424 318.116C142.634 317.537 142.926 317.045 143.301 316.64C143.675 316.235 144.129 315.923 144.66 315.704C145.191 315.484 145.785 315.376 146.443 315.376C147.007 315.376 147.516 315.468 147.969 315.656C148.423 315.844 148.814 316.108 149.14 316.457C149.469 316.804 149.72 317.224 149.898 317.711C150.076 318.2 150.165 318.74 150.165 319.333V320.121H150.16ZM148.744 319.116C148.744 318.756 148.698 318.409 148.606 318.081C148.514 317.753 148.374 317.462 148.182 317.211C147.991 316.96 147.746 316.762 147.443 316.613C147.141 316.465 146.78 316.391 146.362 316.391C145.601 316.391 144.973 316.635 144.482 317.124C143.988 317.613 143.692 318.282 143.586 319.131L148.744 319.116Z" fill="black"/>
<path d="M156.776 312.397H158.057L163.589 320.256C163.837 320.615 164.085 320.978 164.328 321.337C164.571 321.697 164.802 322.06 165.026 322.419H165.067C165.04 321.943 165.024 321.47 165.018 320.999C165.01 320.528 165.007 320.057 165.007 319.579V312.395H166.386V324.559H165.105L159.689 316.931C159.413 316.545 159.141 316.129 158.871 315.685C158.602 315.241 158.351 314.799 158.113 314.363H158.073C158.1 314.942 158.119 315.511 158.132 316.071C158.146 316.632 158.151 317.201 158.151 317.78V324.556H156.773V312.397H156.776Z" fill="black"/>
<path d="M177.39 319.928C177.39 320.687 177.28 321.367 177.056 321.964C176.832 322.562 176.525 323.067 176.131 323.48C175.737 323.893 175.273 324.205 174.742 324.416C174.21 324.628 173.641 324.734 173.04 324.734C172.422 324.734 171.85 324.633 171.327 324.435C170.804 324.236 170.348 323.94 169.968 323.546C169.587 323.155 169.285 322.671 169.061 322.097C168.838 321.525 168.727 320.864 168.727 320.118C168.727 319.359 168.843 318.682 169.072 318.092C169.302 317.502 169.614 317.002 170.008 316.595C170.402 316.188 170.866 315.883 171.397 315.677C171.929 315.471 172.503 315.368 173.121 315.368C173.725 315.368 174.289 315.466 174.815 315.656C175.341 315.846 175.791 316.14 176.174 316.524C176.554 316.91 176.854 317.386 177.07 317.952C177.283 318.523 177.39 319.179 177.39 319.928ZM175.953 320.023C175.953 319.393 175.872 318.849 175.707 318.391C175.543 317.933 175.327 317.56 175.057 317.272C174.788 316.984 174.48 316.77 174.132 316.635C173.784 316.5 173.426 316.431 173.059 316.431C172.692 316.431 172.333 316.494 171.985 316.624C171.637 316.754 171.33 316.96 171.06 317.243C170.79 317.526 170.575 317.896 170.41 318.354C170.246 318.811 170.165 319.367 170.165 320.026C170.165 320.681 170.246 321.242 170.41 321.705C170.575 322.168 170.793 322.546 171.071 322.835C171.346 323.123 171.662 323.337 172.015 323.472C172.368 323.607 172.73 323.676 173.097 323.676C173.463 323.676 173.819 323.615 174.159 323.493C174.499 323.371 174.807 323.165 175.074 322.874C175.343 322.586 175.556 322.208 175.713 321.745C175.869 321.282 175.953 320.705 175.953 320.023Z" fill="black"/>
<path d="M184.382 316.508H181.469V322.126C181.469 322.655 181.596 323.006 181.852 323.189C182.108 323.369 182.445 323.459 182.866 323.459C183.195 323.459 183.516 323.427 183.832 323.363C184.147 323.3 184.422 323.229 184.66 323.152L184.875 324.176C184.614 324.279 184.285 324.369 183.891 324.445C183.497 324.522 183.071 324.562 182.61 324.562C180.929 324.562 180.091 323.808 180.091 322.303V316.51H178.575V315.487H180.091V312.59H181.469V315.487H184.382V316.508V316.508Z" fill="black"/>
<path d="M198.221 312.397V313.537H192.552V317.939H197.789V319.057H192.552V324.562H191.133V312.397H198.221Z" fill="black"/>
<path d="M208.066 319.928C208.066 320.687 207.955 321.367 207.731 321.964C207.507 322.562 207.2 323.067 206.806 323.48C206.412 323.893 205.948 324.205 205.417 324.416C204.886 324.628 204.317 324.734 203.715 324.734C203.097 324.734 202.526 324.633 202.002 324.435C201.479 324.236 201.023 323.94 200.643 323.546C200.263 323.155 199.961 322.671 199.737 322.097C199.513 321.525 199.402 320.864 199.402 320.118C199.402 319.359 199.518 318.682 199.748 318.092C199.977 317.502 200.29 317.002 200.684 316.595C201.077 316.188 201.541 315.883 202.073 315.677C202.604 315.471 203.178 315.368 203.796 315.368C204.4 315.368 204.964 315.466 205.49 315.656C206.016 315.846 206.466 316.14 206.849 316.524C207.23 316.91 207.529 317.386 207.745 317.952C207.958 318.523 208.066 319.179 208.066 319.928ZM206.628 320.023C206.628 319.393 206.547 318.849 206.383 318.391C206.218 317.933 206.002 317.56 205.733 317.272C205.463 316.984 205.155 316.77 204.808 316.635C204.46 316.5 204.101 316.431 203.734 316.431C203.367 316.431 203.009 316.494 202.661 316.624C202.313 316.754 202.005 316.96 201.735 317.243C201.466 317.526 201.25 317.896 201.085 318.354C200.921 318.811 200.84 319.367 200.84 320.026C200.84 320.681 200.921 321.242 201.085 321.705C201.25 322.168 201.468 322.546 201.746 322.835C202.021 323.123 202.337 323.337 202.69 323.472C203.044 323.607 203.405 323.676 203.772 323.676C204.139 323.676 204.495 323.615 204.835 323.493C205.174 323.371 205.482 323.165 205.749 322.874C206.019 322.586 206.232 322.208 206.388 321.745C206.545 321.282 206.628 320.705 206.628 320.023Z" fill="black"/>
<path d="M216.473 315.487H217.851V324.562H216.807L216.61 323.422H216.551C216.208 323.781 215.782 324.091 215.27 324.347C214.757 324.604 214.161 324.734 213.479 324.734C212.521 324.734 211.747 324.472 211.156 323.951C210.566 323.43 210.269 322.628 210.269 321.546V315.484H211.647V321.335C211.647 321.784 211.699 322.16 211.804 322.454C211.909 322.75 212.057 322.988 212.246 323.168C212.438 323.348 212.659 323.475 212.915 323.543C213.171 323.615 213.449 323.649 213.751 323.649C214.315 323.649 214.83 323.528 215.297 323.282C215.763 323.038 216.154 322.721 216.467 322.335V315.487H216.473Z" fill="black"/>
<path d="M222.064 324.562H220.686V315.487H221.729L221.945 316.743C222.404 316.317 222.886 315.984 223.394 315.738C223.898 315.495 224.48 315.37 225.136 315.37C226.08 315.37 226.822 315.627 227.361 316.143C227.901 316.658 228.168 317.378 228.168 318.306V324.562H226.789V318.558C226.789 317.952 226.633 317.455 226.317 317.06C226.002 316.669 225.476 316.471 224.742 316.471C224.284 316.471 223.817 316.584 223.345 316.809C222.873 317.034 222.447 317.354 222.064 317.764V324.562V324.562Z" fill="black"/>
<path d="M237.087 310.853H238.466V324.562H237.325L237.147 323.636H237.106C236.764 323.996 236.383 324.271 235.965 324.456C235.545 324.644 235.013 324.736 234.371 324.736C233.872 324.736 233.387 324.638 232.915 324.448C232.443 324.258 232.017 323.964 231.634 323.578C231.253 323.192 230.949 322.705 230.719 322.12C230.49 321.536 230.374 320.843 230.374 320.044C230.374 319.335 230.468 318.692 230.66 318.113C230.851 317.534 231.127 317.042 231.488 316.637C231.849 316.233 232.289 315.921 232.807 315.701C233.325 315.481 233.913 315.373 234.568 315.373C235.054 315.373 235.51 315.444 235.936 315.585C236.362 315.727 236.745 315.944 237.087 316.241V310.853V310.853ZM237.087 317.476C236.799 317.14 236.456 316.881 236.062 316.693C235.669 316.505 235.261 316.412 234.841 316.412C234.447 316.412 234.066 316.476 233.7 316.606C233.333 316.735 233.006 316.941 232.726 317.224C232.443 317.508 232.216 317.878 232.046 318.335C231.876 318.793 231.79 319.343 231.79 319.986C231.79 320.655 231.871 321.221 232.035 321.684C232.2 322.147 232.419 322.528 232.696 322.824C232.971 323.12 233.284 323.334 233.632 323.472C233.98 323.607 234.339 323.676 234.706 323.676C235.242 323.676 235.709 323.572 236.103 323.366C236.497 323.16 236.826 322.872 237.087 322.496V317.476V317.476Z" fill="black"/>
<path d="M240.731 323.691C240.731 323.395 240.825 323.152 241.017 322.959C241.208 322.766 241.44 322.671 241.715 322.671C241.991 322.671 242.225 322.768 242.414 322.959C242.603 323.152 242.7 323.398 242.7 323.691C242.7 324.014 242.606 324.268 242.414 324.453C242.223 324.641 241.991 324.734 241.715 324.734C241.44 324.734 241.206 324.641 241.017 324.453C240.825 324.268 240.731 324.014 240.731 323.691Z" fill="black"/>
<path d="M104.475 114.055C104.399 151.355 79.5797 187.469 44.3544 201.538C38.5069 203.873 32.3303 205.696 27.23 209.346C22.1296 212.996 18.216 219.085 19.3703 225.174C20.4411 230.829 25.7276 235.069 31.4322 236.402C37.1367 237.735 43.1541 236.624 48.7211 234.812C59.0109 231.463 68.4754 225.697 75.9088 218.63C70.0802 218.596 65.4167 224.454 65.5543 230.167C65.6946 235.881 69.6325 240.988 74.5279 244.093C79.4206 247.196 85.1952 248.629 90.8701 249.928C102.98 252.697 115.436 255.088 127.787 253.679C140.137 252.269 152.544 246.495 157.013 237.29C186.685 252.147 223.607 252.176 253.303 237.364C258.188 234.928 263.102 231.9 265.71 227.171C268.318 222.441 269.411 219.466 265.877 212.89C265.877 221.394 283.018 223.785 290.864 218.104C298.71 212.422 299.282 199.411 291.964 193.09C286.292 188.191 278.109 187.723 270.665 186.446C250.962 183.065 232.715 172.102 220.699 156.42C208.683 140.738 203.022 120.501 205.196 100.999" fill="#FF9F1C"/>
<path d="M97.311 36.7657C101.003 33.5996 103.072 28.6932 102.735 23.8925C102.401 19.0918 99.671 14.5107 95.5713 11.8657C98.1498 9.93225 102.063 10.3687 104.593 12.363C107.123 14.3573 108.399 17.5816 108.65 20.7555C108.904 23.9295 108.248 27.1009 107.525 30.2061C110.581 27.3072 112.14 22.9588 111.603 18.8221C113.996 21.0677 114.222 25.1727 112.089 27.6563C113.152 23.0514 114.713 18.4967 117.332 14.5345C119.954 10.5723 123.711 7.22113 128.256 5.65794C123.781 9.30009 121.812 15.6454 123.466 21.1153C123.571 21.4591 123.706 21.8268 124.013 22.0225C124.442 22.2976 125.011 22.1309 125.48 21.9273C129.769 20.0599 132.714 15.5502 132.647 10.9506C132.579 6.35093 129.507 1.92322 125.165 0.177529C130.109 -0.898982 135.158 3.07644 136.436 7.87974C137.715 12.683 135.967 17.8381 133.165 21.9722C135.902 15.1482 142.359 9.88992 149.701 8.5013C144.447 11.5827 140.113 16.1559 137.362 21.5199C139.684 17.9122 143.355 15.1614 147.514 13.9077C144.984 15.6031 142.931 17.9757 141.642 20.7026C147.549 20.0758 152.717 15.2275 153.617 9.46938C155.257 13.3866 153.356 18.3883 149.502 20.2953C153.696 19.232 156.957 15.3016 157.17 11.059C157.38 6.8138 154.524 2.59505 150.454 1.13501C155.581 0.576921 160.9 3.67155 162.858 8.35318C164.816 13.0348 163.244 18.9014 159.19 22.0331C163.101 17.1346 169.188 13.9738 175.516 13.5506C172.94 13.1221 170.37 14.7382 168.935 16.878C167.497 19.0178 166.958 21.5993 166.448 24.112C169.641 23.1466 172.776 21.6205 174.912 19.0998C177.048 16.5791 178.003 12.9158 176.641 9.92166C175.281 6.92753 171.271 5.15804 168.331 6.71593C171.484 5.35641 175.365 6.16579 177.984 8.36113C180.603 10.5565 182.003 13.95 182.148 17.3224C182.294 20.6974 181.269 24.0459 179.68 27.0427" fill="#FF9F1C"/>
<path d="M207.628 102.462C194.709 115.481 176.061 122.074 157.566 123.072C139.069 124.069 120.633 119.887 103.158 113.859C105.812 128.375 118.697 139.952 133.31 143.422C147.926 146.892 163.697 143.039 176.4 135.151C189.104 127.264 199.016 115.647 206.984 103.142" fill="#F58F00"/>
<path d="M272.806 216.67C254.641 209.357 238.835 196.52 228.125 180.383Z" fill="#F58F00"/>
<path d="M278.513 219.997C275.937 210.912 276.178 201.178 279.188 192.489Z" fill="#F58F00"/>
<path d="M64.4023 212.462C82.5679 205.148 98.3734 192.312 109.084 176.175Z" fill="#F58F00"/>
<path d="M146.963 127.232C187.242 127.232 219.895 103.542 219.895 74.3192C219.895 45.0961 187.242 21.4062 146.963 21.4062C106.684 21.4062 74.0312 45.0961 74.0312 74.3192C74.0312 103.542 106.684 127.232 146.963 127.232Z" fill="#FF9F1C"/>
<path d="M147.26 119.964C183.282 119.964 212.483 99.1373 212.483 73.4464C212.483 47.7555 183.282 26.929 147.26 26.929C111.238 26.929 82.0366 47.7555 82.0366 73.4464C82.0366 99.1373 111.238 119.964 147.26 119.964Z" fill="#FFBF69"/>
<path d="M215.325 84.2446C219.064 75.8785 208.368 63.197 191.435 55.9197C174.502 48.6424 157.745 49.525 154.006 57.8911C150.267 66.2572 160.963 78.9387 177.895 86.216C194.828 93.4934 211.586 92.6107 215.325 84.2446Z" fill="#FF9F1C"/>
<path d="M115.855 86.2195C132.788 78.9422 143.484 66.2607 139.745 57.8946C136.006 49.5285 119.249 48.6458 102.316 55.9232C85.383 63.2005 74.6872 75.882 78.4261 84.2481C82.1649 92.6142 98.9227 93.4968 115.855 86.2195Z" fill="#FF9F1C"/>
<path d="M146.964 90.3109C156.951 90.3109 165.048 86.731 165.048 82.3151C165.048 77.8991 156.951 74.3193 146.964 74.3193C136.976 74.3193 128.879 77.8991 128.879 82.3151C128.879 86.731 136.976 90.3109 146.964 90.3109Z" fill="black"/>
<path d="M147.26 112.076C151.471 112.076 154.885 107.932 154.885 102.819C154.885 97.7062 151.471 93.5615 147.26 93.5615C143.049 93.5615 139.635 97.7062 139.635 102.819C139.635 107.932 143.049 112.076 147.26 112.076Z" fill="#520702"/>
<path d="M167.718 71.0659C173.006 71.0659 177.293 66.8134 177.293 61.5677C177.293 56.322 173.006 52.0696 167.718 52.0696C162.43 52.0696 158.143 56.322 158.143 61.5677C158.143 66.8134 162.43 71.0659 167.718 71.0659Z" fill="#FFFBF5"/>
<path d="M126.079 71.0659C131.367 71.0659 135.654 66.8134 135.654 61.5677C135.654 56.322 131.367 52.0696 126.079 52.0696C120.791 52.0696 116.504 56.322 116.504 61.5677C116.504 66.8134 120.791 71.0659 126.079 71.0659Z" fill="#FFFBF5"/>
<path d="M127.428 65.1121C131.62 65.1121 135.018 62.2108 135.018 58.6318C135.018 55.0529 131.62 52.1516 127.428 52.1516C123.236 52.1516 119.838 55.0529 119.838 58.6318C119.838 62.2108 123.236 65.1121 127.428 65.1121Z" fill="black"/>
<path d="M128.776 54.3548C129.521 54.3548 130.125 53.7627 130.125 53.0323C130.125 52.3019 129.521 51.7098 128.776 51.7098C128.032 51.7098 127.428 52.3019 127.428 53.0323C127.428 53.7627 128.032 54.3548 128.776 54.3548Z" fill="white"/>
<path d="M166.523 65.1121C170.715 65.1121 174.113 62.2108 174.113 58.6318C174.113 55.0529 170.715 52.1516 166.523 52.1516C162.332 52.1516 158.934 55.0529 158.934 58.6318C158.934 62.2108 162.332 65.1121 166.523 65.1121Z" fill="black"/>
<path d="M155.395 229.387C159.271 217.477 168.911 207.791 180.406 202.387C191.904 196.983 205.099 195.624 217.759 197.102C230.42 198.581 242.611 202.778 254.204 208.161C236.818 205.04 219.121 201.906 201.563 203.9C184.004 205.894 166.284 213.816 156.8 228.445" fill="#F58F00"/>
<path d="M155.503 229.387C152.25 217.477 144.164 207.791 134.516 202.387C124.868 196.983 113.796 195.624 103.175 197.102C92.5532 198.581 82.3227 202.778 72.5967 208.161C87.1858 205.04 102.034 201.906 116.766 203.9C131.498 205.894 146.367 213.816 154.324 228.445" fill="#F58F00"/>
<path d="M280.909 204.596C285.184 203.334 289.354 200.149 291.768 196.309C291.997 195.946 292.213 195.486 291.994 195.238C291.8 195.018 291.379 195.105 291.02 195.216C286.697 196.579 282.608 200.311 280.998 204.371" fill="black"/>
<path d="M280.801 206.077C285.141 207.1 290.379 206.413 294.44 204.286C294.823 204.085 295.247 203.794 295.185 203.474C295.131 203.188 294.721 203.054 294.354 202.974C289.92 202.011 284.472 203.217 280.99 205.926" fill="black"/>
<path d="M280.909 208.939C284.41 211.655 289.456 213.192 294.052 212.938C294.486 212.914 294.993 212.824 295.077 212.509C295.15 212.229 294.837 211.938 294.538 211.713C290.926 209.013 285.467 207.859 281.146 208.883" fill="black"/>
<path d="M156.935 218.164C160.436 220.881 165.482 222.418 170.078 222.164C170.513 222.14 171.02 222.05 171.103 221.735C171.176 221.455 170.863 221.164 170.564 220.939C166.952 218.238 161.493 217.085 157.172 218.109" fill="black"/>
<path d="M153.046 218.164C149.545 220.881 144.498 222.418 139.902 222.164C139.468 222.14 138.961 222.05 138.877 221.735C138.805 221.455 139.117 221.164 139.417 220.939C143.028 218.238 148.487 217.085 152.808 218.109" fill="black"/>
<path d="M154.052 226.419C150.551 229.136 145.504 230.673 140.908 230.419C140.474 230.395 139.967 230.305 139.883 229.99C139.81 229.71 140.123 229.419 140.423 229.194C144.034 226.493 149.493 225.34 153.814 226.364" fill="black"/>
<path d="M155.09 235.64C151.125 237.65 145.871 238.211 141.41 237.1C140.989 236.994 140.506 236.812 140.487 236.486C140.471 236.198 140.835 235.97 141.172 235.806C145.242 233.833 150.828 233.725 154.869 235.539" fill="black"/>
<path d="M34.9167 221.042C30.8439 222.835 25.5682 223.11 21.1772 221.759C20.7618 221.632 20.2925 221.423 20.2925 221.095C20.2925 220.804 20.6701 220.598 21.0153 220.452C25.1906 218.701 30.7738 218.897 34.7063 220.926" fill="black"/>
<path d="M36.1251 220.36C31.7098 219.712 27.1164 217.149 24.1657 213.686C23.8879 213.358 23.6047 212.935 23.7854 212.66C23.9446 212.417 24.3761 212.441 24.7483 212.504C29.2256 213.242 33.819 216.36 36.0091 220.153" fill="black"/>
<path d="M35.1867 228.879C31.1139 230.672 25.8382 230.948 21.4472 229.596C21.0318 229.469 20.5625 229.26 20.5625 228.932C20.5625 228.641 20.9401 228.435 21.2854 228.289C25.4606 226.538 31.0438 226.734 34.9763 228.763" fill="black"/>
<path d="M156.935 226.419C160.436 229.136 165.482 230.673 170.078 230.419C170.513 230.395 171.02 230.305 171.103 229.99C171.176 229.71 170.863 229.419 170.564 229.194C166.952 226.493 161.493 225.34 157.172 226.364" fill="black"/>
<path d="M156.711 236.013C160.781 237.814 166.057 238.097 170.45 236.753C170.866 236.626 171.338 236.417 171.338 236.092C171.338 235.801 170.963 235.595 170.615 235.449C166.442 233.693 160.859 233.876 156.924 235.899" fill="black"/>
<path d="M165.873 54.3548C166.618 54.3548 167.222 53.7627 167.222 53.0323C167.222 52.3019 166.618 51.7098 165.873 51.7098C165.129 51.7098 164.525 52.3019 164.525 53.0323C164.525 53.7627 165.129 54.3548 165.873 54.3548Z" fill="white"/>
<path d="M255.473 201.405L272.024 208.518L284.333 180.976L267.782 173.863L255.473 201.405Z" fill="black"/>
<path d="M260.739 193.55C260.291 194.552 259.096 195.01 258.074 194.571L246.956 189.794C245.934 189.355 245.468 188.183 245.915 187.181C246.363 186.178 247.558 185.721 248.58 186.16L259.698 190.937C260.72 191.376 261.187 192.545 260.739 193.55Z" fill="black"/>
<path d="M265.3 183.34C264.852 184.343 263.657 184.8 262.635 184.361L251.517 179.585C250.495 179.145 250.029 177.974 250.476 176.971C250.924 175.969 252.119 175.511 253.141 175.95L264.259 180.727C265.284 181.166 265.748 182.335 265.3 183.34Z" fill="black"/>
<path d="M275.765 192.489C283.336 197.61 285.24 202.731 292.811 207.849C294.966 209.306 297.178 210.819 298.594 212.978C302.095 218.31 284.806 229.265 280.801 234.246C271.371 245.968 321.037 246.511 311.144 257.86C299.581 271.125 245.877 263.605 228.122 265.869C215.58 267.467 200.055 274.619 189.579 277.632C144.301 290.645 124.186 295.784 82.0368 279.409C66.9595 273.55 65.1632 261.458 51.9011 257.395C36.4219 252.652 -5.92933 259.04 1.97343 245.154C6.42379 237.335 14.4398 232.22 22.1484 227.417C34.3154 219.836 33.1071 210.703 45.1662 207.584" stroke="black" stroke-width="2" stroke-miterlimit="10"/>
<path d="M51.6338 215.056C60.1991 215.056 67.1427 208.247 67.1427 199.848C67.1427 191.448 60.1991 184.639 51.6338 184.639C43.0685 184.639 36.125 191.448 36.125 199.848C36.125 208.247 43.0685 215.056 51.6338 215.056Z" fill="black"/>
<path d="M47.5883 197.779C49.0779 197.779 50.2855 196.595 50.2855 195.134C50.2855 193.674 49.0779 192.489 47.5883 192.489C46.0987 192.489 44.8911 193.674 44.8911 195.134C44.8911 196.595 46.0987 197.779 47.5883 197.779Z" fill="white"/>
<path d="M55.4101 207.124C56.8997 207.124 58.1073 205.94 58.1073 204.479C58.1073 203.018 56.8997 201.834 55.4101 201.834C53.9205 201.834 52.7129 203.018 52.7129 204.479C52.7129 205.94 53.9205 207.124 55.4101 207.124Z" fill="white"/>
</svg>
