<svg width="41" height="41" viewBox="0 0 41 41" fill="none" xmlns="http://www.w3.org/2000/svg">
<circle cx="20.5" cy="20.5" r="20" fill="url(#paint0_linear_1_1824)" stroke="white"/>
<g clip-path="url(#clip0_1_1824)">
<path d="M21 31C20.741 31 20.4926 30.8971 20.3095 30.714C20.1263 30.5308 20.0234 30.2824 20.0234 30.0234V11.9766C20.0234 11.7176 20.1263 11.4692 20.3095 11.286C20.4926 11.1029 20.741 11 21 11C21.259 11 21.5074 11.1029 21.6905 11.286C21.8737 11.4692 21.9766 11.7176 21.9766 11.9766V30.0234C21.9766 30.2824 21.8737 30.5308 21.6905 30.714C21.5074 30.8971 21.259 31 21 31Z" fill="black"/>
<path d="M30.0234 21.9766H11.9766C11.7176 21.9766 11.4692 21.8737 11.286 21.6905C11.1029 21.5074 11 21.259 11 21C11 20.741 11.1029 20.4926 11.286 20.3095C11.4692 20.1263 11.7176 20.0234 11.9766 20.0234H30.0234C30.2824 20.0234 30.5308 20.1263 30.714 20.3095C30.8971 20.4926 31 20.741 31 21C31 21.259 30.8971 21.5074 30.714 21.6905C30.5308 21.8737 30.2824 21.9766 30.0234 21.9766Z" fill="black"/>
</g>
<defs>
<linearGradient id="paint0_linear_1_1824" x1="3.05474e-07" y1="41" x2="44.1494" y2="37.2691" gradientUnits="userSpaceOnUse">
<stop stop-color="#FBB127"/>
<stop offset="1" stop-color="#FCDD6A"/>
</linearGradient>
<clipPath id="clip0_1_1824">
<rect width="20" height="20" fill="white" transform="translate(11 11)"/>
</clipPath>
</defs>
</svg>
