<svg width="100" height="100" viewBox="0 0 100 100" fill="none" xmlns="http://www.w3.org/2000/svg">
<g clip-path="url(#clip0_1_1801)">
<path d="M50 0.00219727C22.3887 0.00219727 0 22.3865 0 50C0 77.6135 22.3865 99.9978 50 99.9978C77.6157 99.9978 100 77.6135 100 50C100 22.3865 77.6157 0.00219727 50 0.00219727ZM50 14.9521C59.1364 14.9521 66.54 22.3579 66.54 31.4899C66.54 40.6242 59.1364 48.0278 50 48.0278C40.868 48.0278 33.4644 40.6242 33.4644 31.4899C33.4644 22.3579 40.868 14.9521 50 14.9521ZM49.989 86.9257C40.8767 86.9257 32.531 83.6071 26.0937 78.1143C24.5256 76.7768 23.6208 74.8155 23.6208 72.7576C23.6208 63.496 31.1166 56.0836 40.3804 56.0836H59.624C68.89 56.0836 76.3573 63.496 76.3573 72.7576C76.3573 74.8177 75.4568 76.7746 73.8865 78.1121C67.4515 83.6071 59.1035 86.9257 49.989 86.9257Z" fill="#E6E6E6"/>
</g>
<defs>
<clipPath id="clip0_1_1801">
<rect width="100" height="100" fill="white"/>
</clipPath>
</defs>
</svg>
